<?xml version="1.0" encoding="UTF-8"?>
<svg id="Layer_1" data-name="Layer 1" xmlns="http://www.w3.org/2000/svg" version="1.1" viewBox="0 0 512 512">
  <defs>
    <style>
      .cls-1 {
        fill: #333;
        stroke-width: 0px;
      }
    </style>
  </defs>
  <polygon class="cls-1" points="512 256 455.73 199.73 455.73 234.42 309.7 234.42 413.29 130.83 437.02 154.56 437.02 74.98 357.44 74.98 382.77 100.31 279.19 203.9 279.19 56.27 312.27 56.27 256 0 199.73 56.27 236.03 56.27 236.03 203.9 130.83 98.71 154.56 74.98 74.98 74.98 74.98 154.56 100.31 129.23 205.51 234.42 56.27 234.42 56.27 199.73 0 256 56.27 312.27 56.27 277.58 205.51 277.58 100.31 382.77 74.98 357.44 74.98 437.02 154.56 437.02 130.83 413.29 236.03 308.1 236.03 455.73 199.73 455.73 256 512 312.27 455.73 279.19 455.73 279.19 308.1 382.77 411.69 357.44 437.02 437.02 437.02 437.02 357.44 413.29 381.17 309.7 277.58 455.73 277.58 455.73 312.27 512 256"/>
</svg>